<?xml version="1.0" encoding="UTF-8" standalone="no"?>
<!-- Created with Inkscape (http://www.inkscape.org/) -->

<svg
   xmlns:dc="http://purl.org/dc/elements/1.1/"
   xmlns:cc="http://creativecommons.org/ns#"
   xmlns:rdf="http://www.w3.org/1999/02/22-rdf-syntax-ns#"
   xmlns:svg="http://www.w3.org/2000/svg"
   xmlns="http://www.w3.org/2000/svg"
   xmlns:sodipodi="http://sodipodi.sourceforge.net/DTD/sodipodi-0.dtd"
   xmlns:inkscape="http://www.inkscape.org/namespaces/inkscape"
   width="1000"
   height="1000"
   viewBox="0 0 264.58333 264.58334"
   version="1.1"
   id="svg873"
   inkscape:version="0.92.3 (2405546, 2018-03-11)"
   sodipodi:docname="NPC_MAINLOGO.svg"
   inkscape:export-filename="D:\P22\Mine\Pic &amp; Vid\Ink\NPC_MAINLOGO.png"
   inkscape:export-xdpi="140"
   inkscape:export-ydpi="140">
  <defs
     id="defs867">
    <inkscape:path-effect
       effect="taper_stroke"
       id="path-effect1532"
       is_visible="true"
       stroke_width="4.7624998"
       attach_start="0.58035379"
       end_offset="0.41047655"
       smoothing="0.5"
       jointype="extrapolated"
       miter_limit="100" />
    <inkscape:path-effect
       effect="taper_stroke"
       id="path-effect1528"
       is_visible="true"
       stroke_width="4.7624998"
       attach_start="0.64961092"
       end_offset="0.31371975"
       smoothing="0.5"
       jointype="extrapolated"
       miter_limit="100" />
    <inkscape:path-effect
       effect="taper_stroke"
       id="path-effect1524"
       is_visible="true"
       stroke_width="4.7624998"
       attach_start="0.61073743"
       end_offset="0.2513011"
       smoothing="0.5"
       jointype="extrapolated"
       miter_limit="100" />
    <inkscape:path-effect
       effect="taper_stroke"
       id="path-effect1520"
       is_visible="true"
       stroke_width="4.7624998"
       attach_start="1.4435698"
       end_offset="3.5564302"
       smoothing="0.5"
       jointype="extrapolated"
       miter_limit="100" />
    <inkscape:path-effect
       effect="taper_stroke"
       id="path-effect1515"
       is_visible="true"
       stroke_width="4.7624998"
       attach_start="1.2081159"
       end_offset="1.2357919"
       smoothing="0.5"
       jointype="extrapolated"
       miter_limit="100" />
    <inkscape:path-effect
       effect="powerstroke"
       id="path-effect1509"
       is_visible="true"
       offset_points="0,2.3812499"
       sort_points="true"
       interpolator_type="CubicBezierJohan"
       interpolator_beta="0.2"
       start_linecap_type="zerowidth"
       linejoin_type="extrp_arc"
       miter_limit="4"
       end_linecap_type="zerowidth" />
    <inkscape:path-effect
       effect="taper_stroke"
       id="path-effect1497"
       is_visible="true"
       stroke_width="4.7624998"
       attach_start="0.60959572"
       end_offset="0.97963621"
       smoothing="0.5"
       jointype="extrapolated"
       miter_limit="100" />
    <inkscape:path-effect
       effect="taper_stroke"
       id="path-effect1493"
       is_visible="true"
       stroke_width="4.7624998"
       attach_start="1.1983811"
       end_offset="2.6279398"
       smoothing="0.5"
       jointype="extrapolated"
       miter_limit="100" />
    <inkscape:path-effect
       effect="skeletal"
       id="path-effect1481"
       is_visible="true"
       pattern="M 1.5658453,3.8982183 C 1.5658453,1.1382183 3.8058453,-1.1017817 6.5658453,-1.1017817 9.3258453,-1.1017817 11.565845,1.1382183 11.565845,3.8982183 11.565845,6.6582183 9.3258453,8.8982183 6.5658453,8.8982183 3.8058453,8.8982183 1.5658453,6.6582183 1.5658453,3.8982183 Z"
       copytype="single_stretched"
       prop_scale="0.26458333"
       scale_y_rel="false"
       spacing="0"
       normal_offset="0"
       tang_offset="0"
       prop_units="false"
       vertical_pattern="false"
       fuse_tolerance="0" />
    <inkscape:path-effect
       effect="skeletal"
       id="path-effect1477"
       is_visible="true"
       pattern="M 1.5658453,3.8982183 C 1.5658453,1.1382183 3.8058453,-1.1017817 6.5658453,-1.1017817 9.3258453,-1.1017817 11.565845,1.1382183 11.565845,3.8982183 11.565845,6.6582183 9.3258453,8.8982183 6.5658453,8.8982183 3.8058453,8.8982183 1.5658453,6.6582183 1.5658453,3.8982183 Z"
       copytype="single_stretched"
       prop_scale="0.26458333"
       scale_y_rel="false"
       spacing="0"
       normal_offset="0"
       tang_offset="0"
       prop_units="false"
       vertical_pattern="false"
       fuse_tolerance="0" />
    <inkscape:path-effect
       effect="skeletal"
       id="path-effect1461"
       is_visible="true"
       pattern="M 1.5658453,3.8982183 C 1.5658453,1.1382183 3.8058453,-1.1017817 6.5658453,-1.1017817 9.3258453,-1.1017817 11.565845,1.1382183 11.565845,3.8982183 11.565845,6.6582183 9.3258453,8.8982183 6.5658453,8.8982183 3.8058453,8.8982183 1.5658453,6.6582183 1.5658453,3.8982183 Z"
       copytype="single_stretched"
       prop_scale="0.26458333"
       scale_y_rel="false"
       spacing="0"
       normal_offset="0"
       tang_offset="0"
       prop_units="false"
       vertical_pattern="false"
       fuse_tolerance="0" />
    <inkscape:path-effect
       effect="skeletal"
       id="path-effect1453"
       is_visible="true"
       pattern="M 1.5658453,3.8982183 C 1.5658453,1.1382183 3.8058453,-1.1017817 6.5658453,-1.1017817 9.3258453,-1.1017817 11.565845,1.1382183 11.565845,3.8982183 11.565845,6.6582183 9.3258453,8.8982183 6.5658453,8.8982183 3.8058453,8.8982183 1.5658453,6.6582183 1.5658453,3.8982183 Z"
       copytype="single_stretched"
       prop_scale="0.26458333"
       scale_y_rel="false"
       spacing="0"
       normal_offset="0"
       tang_offset="0"
       prop_units="false"
       vertical_pattern="false"
       fuse_tolerance="0" />
    <inkscape:path-effect
       effect="taper_stroke"
       id="path-effect1449"
       is_visible="true"
       stroke_width="4.7624998"
       attach_start="1.0849482"
       end_offset="1.0710231"
       smoothing="0.5"
       jointype="extrapolated"
       miter_limit="100" />
    <inkscape:path-effect
       effect="taper_stroke"
       id="path-effect1445"
       is_visible="true"
       stroke_width="4.7624998"
       attach_start="0.73702701"
       end_offset="0.26297299"
       smoothing="0.5"
       jointype="extrapolated"
       miter_limit="100" />
    <inkscape:path-effect
       effect="taper_stroke"
       id="path-effect1443"
       is_visible="true"
       stroke_width="4.7624998"
       attach_start="0.33476223"
       end_offset="0.36975606"
       smoothing="0.5"
       jointype="extrapolated"
       miter_limit="100" />
    <inkscape:path-effect
       effect="taper_stroke"
       id="path-effect1441"
       is_visible="true"
       stroke_width="4.7624998"
       attach_start="1.6869706"
       end_offset="1.7431174"
       smoothing="0.5"
       jointype="extrapolated"
       miter_limit="100" />
    <inkscape:path-effect
       effect="taper_stroke"
       id="path-effect1437"
       is_visible="true"
       stroke_width="4.7624998"
       attach_start="0.53621267"
       end_offset="1.8225885"
       smoothing="0.5"
       jointype="extrapolated"
       miter_limit="100" />
  </defs>
  <sodipodi:namedview
     id="base"
     pagecolor="#ffffff"
     bordercolor="#666666"
     borderopacity="1.0"
     inkscape:pageopacity="0.0"
     inkscape:pageshadow="2"
     inkscape:zoom="0.7"
     inkscape:cx="596.74298"
     inkscape:cy="470.58208"
     inkscape:document-units="px"
     inkscape:current-layer="layer1"
     showgrid="false"
     units="px"
     objecttolerance="6"
     inkscape:window-width="1366"
     inkscape:window-height="705"
     inkscape:window-x="-8"
     inkscape:window-y="-8"
     inkscape:window-maximized="1"
     showguides="true"
     inkscape:guide-bbox="true">
    <sodipodi:guide
       position="0,0"
       orientation="1,0"
       id="guide1536"
       inkscape:locked="false"
       inkscape:label=""
       inkscape:color="rgb(0,0,255)" />
    <sodipodi:guide
       position="264.58333,264.58333"
       orientation="1,0"
       id="guide1538"
       inkscape:locked="false"
       inkscape:label=""
       inkscape:color="rgb(0,0,255)" />
  </sodipodi:namedview>
  <metadata
     id="metadata870">
    <rdf:RDF>
      <cc:Work
         rdf:about="">
        <dc:format>image/svg+xml</dc:format>
        <dc:type
           rdf:resource="http://purl.org/dc/dcmitype/StillImage" />
        <dc:title />
      </cc:Work>
    </rdf:RDF>
  </metadata>
  <g
     inkscape:groupmode="layer"
     id="layer2"
     inkscape:label="Blank"
     style="display:none"
     sodipodi:insensitive="true">
    <rect
       style="opacity:1;fill:#fefdfe;fill-opacity:1;stroke:none;stroke-width:4.76249981;stroke-linecap:butt;stroke-linejoin:miter;stroke-miterlimit:4;stroke-dasharray:none;stroke-dashoffset:0;stroke-opacity:1"
       id="rect1534"
       width="264.58334"
       height="264.58334"
       x="0"
       y="-1.0890045e-005"
       ry="0" />
  </g>
  <g
     inkscape:label="Layer 1"
     inkscape:groupmode="layer"
     id="layer1"
     transform="translate(0,-32.416659)"
     style="display:inline">
    <path
       style="opacity:1;fill:#b6d76e;fill-opacity:1;fill-rule:nonzero;stroke:none;stroke-width:4.76249981;stroke-linecap:butt;stroke-linejoin:bevel;stroke-miterlimit:4;stroke-dasharray:none;stroke-dashoffset:0;stroke-opacity:1"
       d="M 176.40444,112.26651 C 177.36055,114.38909 177.85356,116.69582 177.75443,118.91736 177.67693,121.07035 177.06445,123.18935 176.30701,125.008 175.47203,126.99613 174.47364,128.61833 173.63871,129.80802 173.63871,129.80802 173.63871,129.80802 173.63871,129.80802 173.17683,130.46501 172.81295,130.92866 172.48611,131.31101 172.31431,131.51181 172.1921,131.64555 172.07435,131.76438 171.91335,131.92391 171.81654,131.99157 171.81654,131.99157 171.81654,131.99157 171.93465,131.96911 172.14962,131.8747 172.30363,131.80735 172.47875,131.72146 172.71383,131.59263 173.15743,131.34958 173.69877,131.01625 174.36736,130.52961 174.36736,130.52961 174.36736,130.52961 174.36737,130.52961 175.58333,129.64538 177.15144,128.29813 178.62064,126.36992 179.98077,124.59155 181.25262,122.26476 181.82638,119.45047 182.40924,116.47188 182.07624,113.24372 180.74409,110.30467 178.51813,105.57289 174.55742,102.69737 171.3769,101.0404 168.21055,99.390818 165.93661,98.850154 165.93661,98.850154 165.93661,98.850154 167.62993,100.46614 169.92357,102.95817 172.27859,105.51689 174.84834,108.63541 176.40444,112.26651 Z"
       id="path1429"
       inkscape:connector-curvature="0"
       sodipodi:nodetypes="cc"
       inkscape:path-effect="#path-effect1445"
       inkscape:original-d="M 171.81654,131.99157 C 173.16704,131.47857 192.59675,114.8195 165.93661,98.850154" />
    <path
       style="opacity:1;fill:#b6d76e;fill-opacity:1;fill-rule:nonzero;stroke:none;stroke-width:4.76249981;stroke-linecap:butt;stroke-linejoin:bevel;stroke-miterlimit:4;stroke-dasharray:none;stroke-dashoffset:0;stroke-opacity:1"
       d="M 159.63685,107.85646 C 160.99637,109.07705 161.96283,110.83912 162.29275,112.64961 162.29275,112.64961 162.29275,112.64961 162.29275,112.64961 162.81874,115.31698 162.38597,118.31256 162.0419,120.31283 161.68165,122.40723 161.39302,123.70622 161.39302,123.70622 161.39302,123.70622 162.2654,122.70849 163.41988,120.8407 164.53375,119.0386 166.04123,116.12302 166.23335,112.43795 166.23335,112.43795 166.23335,112.43795 166.23335,112.43795 166.3152,109.57652 165.21709,106.55271 162.86286,104.353 159.17212,100.95453 154.04535,99.577665 149.54219,97.630522 146.5238,96.291243 144.02966,95.27484 141.84892,93.610428 141.84892,93.610428 141.84892,93.610427 141.84892,93.610427 139.74896,92.076039 138.34135,90.045474 137.47731,88.450515 136.61252,86.854158 136.26969,85.753947 136.26969,85.753947 136.26969,85.753947 136.06379,86.882138 136.2894,88.816949 136.51181,90.724337 137.23613,93.519413 139.36677,96.138222 139.36677,96.138221 139.36677,96.138223 139.36677,96.138223 141.51529,98.715408 144.43876,100.64595 147.65204,102.00188 152.50887,104.10194 157.21927,105.63034 159.63685,107.85646 Z"
       id="path1431"
       inkscape:connector-curvature="0"
       sodipodi:nodetypes="cc"
       inkscape:path-effect="#path-effect1443"
       inkscape:original-d="M 161.39302,123.70622 C 174.48923,95.375652 138.94239,107.67005 136.26969,85.753947" />
    <path
       style="opacity:1;fill:#b6d76e;fill-opacity:1;fill-rule:nonzero;stroke:none;stroke-width:4.76249981;stroke-linecap:butt;stroke-linejoin:miter;stroke-miterlimit:4;stroke-dasharray:none;stroke-dashoffset:0;stroke-opacity:1"
       d="M 95.214353,91.864831 C 104.04647,92.180001 112.42228,94.537555 119.65469,98.153472 119.65469,98.153472 119.65469,98.153475 119.65469,98.153475 127.47122,102.04954 133.6074,107.18751 137.68769,111.05709 141.80945,114.96599 144.02051,117.62944 144.02051,117.62944 144.02051,117.62944 142.27822,114.64369 138.64331,110.1726 135.04871,105.7511 129.37241,99.754012 121.41965,94.953101 121.41965,94.953101 121.41964,94.953099 121.41964,94.953099 114.03873,90.509993 105.0666,87.462092 95.387069,87.105464 80.151853,86.552582 65.304552,91.936483 52.832413,100.85932 46.896829,105.10576 41.026053,112.16073 37.931806,120.77022 34.837559,129.37971 34.657345,139.65035 40.382271,149.56621 49.931076,166.10524 67.737102,173.08199 73.828718,175.69776 77.771782,177.39094 78.581653,179.79747 78.423312,180.91679 78.344141,181.47645 78.133287,181.7849 77.662983,182.03241 77.192679,182.27992 76.315509,182.46131 74.869021,182.02594 71.337877,180.96311 65.871804,177.93304 60.137086,175.47289 58.340813,174.7023 56.399669,174.16291 54.383029,173.83628 49.524473,173.05081 44.547798,173.50574 39.979501,175.05544 35.365971,176.57602 31.178273,179.40177 28.478164,183.419 26.238163,186.82413 25.280306,190.80086 25.571219,194.56729 25.930082,198.79857 27.681337,202.52699 29.83803,205.44599 35.041257,212.45797 42.33563,215.75521 46.947276,217.30497 51.819557,218.94232 54.752481,219.19186 54.752481,219.19186 54.752481,219.19186 51.870039,218.56901 47.276048,216.47154 42.92215,214.48369 36.243919,210.63241 32.11308,203.90086 30.411909,201.13976 29.116433,197.80634 29.082603,194.38712 29.02685,191.39871 29.992241,188.28241 31.849202,185.7419 33.993912,182.72811 37.514606,180.65357 41.396359,179.41001 45.309951,178.19985 49.547622,177.87617 53.621566,178.53751 55.295229,178.80859 56.868281,179.25283 58.259488,179.84965 63.67065,182.171 68.980441,185.22711 73.496404,186.58634 75.842225,187.2924 78.088191,187.1904 79.880972,186.2469 81.673753,185.3034 82.865932,183.51322 83.138863,181.58386 83.684724,177.72514 80.995071,173.59202 75.707842,171.32166 A 18.148489,18.148489 0 0 0 75.707842,171.32166 192.76172,192.76172 0 0 0 75.707841,171.32166 C 69.404027,168.61477 53.056509,161.99364 44.506717,147.18497 39.502812,138.51795 39.695744,129.94331 42.41364,122.38099 45.131535,114.81866 50.511899,108.37526 55.603471,104.73264 67.357575,96.323504 81.213902,91.356758 95.214353,91.864831 Z"
       id="path1433"
       inkscape:connector-curvature="0"
       sodipodi:nodetypes="cssssssc"
       inkscape:path-effect="#path-effect1437"
       inkscape:original-d="M 144.02051,117.62944 C 116.86136,81.653654 80.335778,84.110721 54.217942,102.79598 43.190786,110.68504 31.715663,129.79271 42.444494,148.37559 51.493793,164.04944 68.570565,170.84838 74.76828,173.50971 83.998573,177.47325 81.767329,186.589 74.182713,184.30614 70.159159,183.09511 64.771227,180.05202 59.198287,177.66127 50.214992,173.8075 36.041586,176.05029 30.163683,184.58045 21.726978,196.82401 32.56911,214.38101 54.752481,219.19186" />
    <path
       style="opacity:1;fill:#b6d76e;fill-opacity:1;fill-rule:nonzero;stroke:none;stroke-width:4.76249981;stroke-linecap:butt;stroke-linejoin:miter;stroke-miterlimit:4;stroke-dasharray:none;stroke-dashoffset:0;stroke-opacity:1"
       d="M 79.926102,200.56382 C 74.180681,194.67672 65.453835,192.93949 58.629984,195.99125 56.406745,197.0358 54.748361,198.76568 53.731011,200.68092 52.562049,202.85293 52.220635,205.24591 52.570514,207.39798 53.072101,210.26694 54.732384,212.44257 56.422986,213.82207 56.422986,213.82207 56.422988,213.82208 56.422988,213.82208 61.560239,217.99186 66.010785,217.65714 66.010785,217.65714 66.010785,217.65714 61.561511,217.06256 57.560489,212.61377 57.560489,212.61377 57.560487,212.61377 57.560487,212.61377 56.299787,211.21485 55.192068,209.23142 55.137894,207.11182 55.069152,205.50771 55.55631,203.79365 56.538365,202.35167 57.414984,201.08417 58.677711,200.00189 60.109392,199.50943 65.356873,197.48325 72.119069,199.46294 76.530658,203.90334 78.711776,206.12098 80.595999,209.08269 81.909521,212.78391 82.877685,215.51199 83.909492,217.92842 85.052341,220.03855 86.448288,222.69247 88.372228,225.23414 91.022583,227.07738 93.480846,228.73006 96.317489,229.36211 98.945083,229.14991 103.1625,228.70854 105.52622,225.29851 105.91167,222.41827 106.16469,220.46427 105.63927,218.73926 104.89638,217.50345 102.89412,214.22835 100.40662,213.87738 100.40662,213.87738 100.40662,213.87738 102.6586,214.97433 103.66178,218.08724 104.03469,219.21287 104.12581,220.61443 103.67264,221.93627 103.03881,223.8029 100.92279,225.77839 98.854821,225.48813 96.99529,225.38698 95.08876,224.70953 93.621473,223.50601 91.851518,222.13287 90.521445,220.05992 89.240084,217.77046 88.25194,215.94598 87.305078,213.74771 86.397763,211.19109 84.871662,206.89086 82.632363,203.3154 79.926102,200.56382 Z"
       id="path1439"
       inkscape:connector-curvature="0"
       sodipodi:nodetypes="csssc"
       inkscape:path-effect="#path-effect1441"
       inkscape:original-d="M 66.010785,217.65714 C 49.413932,213.53104 52.403787,200.67953 59.369688,197.75034 68.530867,193.89802 79.617929,199.20682 84.153642,211.9875 87.804102,222.27372 92.236432,227.48327 98.899952,227.31902 104.84964,227.17236 108.16058,218.2349 100.40662,213.87738" />
    <path
       style="opacity:1;fill:#ad75b2;fill-opacity:1;fill-rule:nonzero;stroke:none;stroke-width:4.76249981;stroke-linecap:butt;stroke-linejoin:miter;stroke-miterlimit:4;stroke-dasharray:none;stroke-dashoffset:0;stroke-opacity:1"
       d="M 56.294219,120.48557 C 56.817424,121.08746 57.357869,121.65575 57.904982,122.19747 58.068432,122.3556 58.173355,122.44658 58.21321,122.4774 58.21321,122.4774 58.213214,122.4774 58.213214,122.4774 58.358122,122.6028 58.499101,122.72234 58.635116,122.83711 59.101066,123.23046 59.566554,123.61686 60.028408,123.99841 61.595299,125.29295 63.168272,126.5671 64.727378,127.81624 69.599812,131.72007 74.402793,135.42352 78.786728,138.73351 90.573355,147.62253 99.461664,153.77915 99.461664,153.77915 99.461664,153.77915 91.785338,146.16459 80.894077,136.20011 76.832479,132.48001 72.344339,128.45011 67.632014,124.34146 66.123989,123.02663 64.601963,121.71253 63.06684,120.3929 62.613997,120.00361 62.162663,119.61659 61.717401,119.23107 61.585808,119.11711 61.45933,119.00746 61.339055,118.90108 61.339055,118.90108 61.339052,118.90108 61.339052,118.90108 61.249905,118.81915 61.223118,118.80009 61.265394,118.83705 60.783615,118.34987 60.321866,117.86095 59.890441,117.3633 58.921654,116.24745 58.395399,115.3533 58.262156,115.00062 58.195535,114.82429 58.239946,114.80962 58.219113,115.0241 58.198279,115.23859 58.002802,115.68044 57.751248,115.89688 57.499694,116.11332 57.332013,116.11599 57.396676,116.1068 57.461339,116.0976 57.714155,116.08603 58.091424,116.13829 58.845963,116.24279 60.082196,116.58539 61.630289,117.21671 62.188346,117.44412 62.746011,117.68903 63.304605,117.9464 65.879095,119.1341 68.44032,120.30487 70.999157,121.44267 76.506614,123.89151 81.879015,126.17042 86.783524,128.19088 99.888945,133.59019 109.64653,137.14075 109.66702,137.14821 109.66702,137.14821 109.66702,137.14821 109.66702,137.14821 109.66702,137.14821 109.66702,137.14821 109.66702,137.14821 109.66702,137.14821 109.66702,137.14821 109.66702,137.14821 109.66702,137.14821 109.66702,137.14821 109.66702,137.14821 109.66702,137.14821 109.66702,137.14821 109.66702,137.14821 109.66702,137.14821 109.66702,137.14821 109.66702,137.14821 109.66702,137.14821 109.66702,137.14821 109.66702,137.14821 109.66702,137.14821 109.66702,137.14821 109.66702,137.14821 109.66702,137.14821 109.66702,137.14821 109.66702,137.14821 109.66702,137.14821 109.66702,137.14821 109.66702,137.14821 109.66704,137.14821 109.66704,137.14821 109.66704,137.14821 109.66704,137.14821 109.66704,137.14821 109.66703,137.1482 109.66703,137.1482 109.66703,137.1482 109.66703,137.1482 109.66703,137.1482 109.66703,137.1482 109.66703,137.1482 109.66703,137.1482 109.66703,137.1482 109.66703,137.1482 109.66703,137.1482 109.66703,137.1482 109.66703,137.1482 109.66703,137.1482 109.66703,137.1482 109.66703,137.1482 109.66703,137.1482 109.66703,137.1482 109.66703,137.1482 109.66703,137.1482 109.66703,137.1482 109.66703,137.1482 109.66703,137.1482 109.66703,137.1482 109.66703,137.1482 109.66703,137.1482 109.66703,137.1482 109.66703,137.1482 109.66703,137.1482 109.66703,137.1482 109.66703,137.1482 109.64822,137.13715 100.69591,131.87672 88.18584,125.213 83.504689,122.71966 78.324426,120.02939 72.928193,117.34508 70.43772,116.10607 67.886954,114.85294 65.315181,113.63872 64.699614,113.34806 64.071187,113.06901 63.428676,112.80681 61.642038,112.07821 60.11903,111.61115 58.7448,111.42082 58.057685,111.32565 57.403735,111.29537 56.726124,111.39174 56.048513,111.48811 55.303049,111.72062 54.645076,112.28674 53.987103,112.85286 53.556572,113.76425 53.478921,114.56368 53.401271,115.36311 53.567103,116.0488 53.807012,116.6838 54.286831,117.95382 55.114078,119.12629 56.294219,120.48557 Z"
       id="path1447"
       inkscape:connector-curvature="0"
       sodipodi:nodetypes="cssc"
       inkscape:path-effect="#path-effect1449"
       inkscape:original-d="M 99.461677,153.77916 C 99.461677,153.77916 60.45638,121.38845 59.585188,120.51726 52.954392,113.88646 55.504717,111.68282 64.309893,115.79256 65.663766,116.42447 109.66704,137.14821 109.66704,137.14821" />
    <path
       style="opacity:1;fill:#ad75b2;fill-opacity:1;stroke:none;stroke-width:4.76249981;stroke-linecap:butt;stroke-linejoin:miter;stroke-miterlimit:4;stroke-dasharray:none;stroke-dashoffset:0;stroke-opacity:1"
       d="M 75.064964,129.52293 C 75.270409,129.20787 76.089858,129.41238 77.257256,129.54896 78.448958,129.68838 79.99201,129.74852 81.638446,129.28808 81.658384,129.2825 81.678275,129.27687 81.69812,129.27117 83.363168,128.80912 84.758489,128.01427 85.823257,127.39413 86.879803,126.77877 87.604579,126.34623 87.893906,126.58295 88.255105,126.87848 87.129151,130.43638 82.426303,131.81468 82.398955,131.8225 82.371541,131.83018 82.344062,131.83772 80.053474,132.46681 77.986892,132.00904 76.671517,131.31857 75.344687,130.62207 74.881778,129.80385 75.064964,129.52293 Z"
       id="path1451"
       inkscape:connector-curvature="0"
       inkscape:path-effect="#path-effect1453"
       inkscape:original-d="M 75.064964,129.52293 C 79.62097,132.49385 84.891973,130.25199 87.893901,126.58296" />
    <path
       style="opacity:1;fill:#ad75b2;fill-opacity:1;stroke:none;stroke-width:4.76249981;stroke-linecap:butt;stroke-linejoin:miter;stroke-miterlimit:4;stroke-dasharray:none;stroke-dashoffset:0;stroke-opacity:1"
       d="M 83.216684,136.87284 C 83.3199,136.50521 84.357824,136.50832 85.924876,136.49077 87.457067,136.47362 89.593964,136.4334 91.584498,135.71098 91.686048,135.67413 91.786477,135.63582 91.885825,135.59603 93.796957,134.89609 95.480763,133.61461 96.656051,132.7513 97.878633,131.85325 98.698354,131.29243 98.985592,131.52744 99.243052,131.73809 98.943244,132.72366 97.968211,134.04837 97.014591,135.34398 95.319385,137.04712 92.846695,138.05883 92.717059,138.10838 92.586213,138.15554 92.454206,138.20029 89.808978,139.09691 87.306106,138.82906 85.658141,138.35451 83.982323,137.87194 83.125591,137.19728 83.216684,136.87284 Z"
       id="path1459"
       inkscape:connector-curvature="0"
       inkscape:path-effect="#path-effect1461"
       inkscape:original-d="M 83.216684,136.87284 C 90.62158,138.95187 94.954357,136.45451 98.985586,131.52745" />
    <path
       style="opacity:1;fill:#ad75b2;fill-opacity:1;stroke:none;stroke-width:4.76249981;stroke-linecap:butt;stroke-linejoin:miter;stroke-miterlimit:4;stroke-dasharray:none;stroke-dashoffset:0;stroke-opacity:1"
       d="M 91.234771,143.68822 C 91.287886,142.9599 95.644668,143.04981 100.18606,141.36612 100.25972,141.33881 100.33297,141.31114 100.40581,141.28311 102.62518,140.45201 104.40612,139.26805 105.74137,138.33574 107.06205,137.41361 107.91248,136.77389 108.2064,137.00647 108.59219,137.31176 106.9201,141.57867 101.35214,143.75292 101.26648,143.78562 101.18034,143.81761 101.09372,143.8489 95.501726,145.86871 91.200495,144.15821 91.234771,143.68822 Z"
       id="path1475"
       inkscape:connector-curvature="0"
       inkscape:path-effect="#path-effect1477"
       inkscape:original-d="M 91.234771,143.68822 C 98.485788,144.21703 104.04443,142.2661 108.20639,137.00648"
       sodipodi:nodetypes="cc" />
    <path
       style="opacity:1;fill:#4fc7ed;fill-opacity:1;stroke:none;stroke-width:4.76249981;stroke-linecap:butt;stroke-linejoin:miter;stroke-miterlimit:4;stroke-dasharray:none;stroke-dashoffset:0;stroke-opacity:1"
       d="M 183.75037,168.70922 C 184.13603,168.37256 186.1338,170.47065 189.52735,171.30363 190.98241,171.67782 192.67141,171.75066 194.46745,171.40423 194.53242,171.39169 194.59717,171.37868 194.66166,171.36519 197.62174,170.75815 200.04683,169.22306 201.73034,167.99758 203.42678,166.76269 204.41754,165.83049 204.72805,166.06338 204.98388,166.25525 204.53845,167.61947 202.99214,169.36958 201.46443,171.09863 198.83483,173.14979 195.21559,173.95195 195.13551,173.96943 195.05505,173.98613 194.97424,174.00203 192.73669,174.44249 190.59451,174.21029 188.80809,173.54328 184.4384,171.86798 183.60905,168.83259 183.75037,168.70922 Z"
       id="path1479"
       inkscape:connector-curvature="0"
       inkscape:path-effect="#path-effect1481"
       inkscape:original-d="M 183.75037,168.70922 C 190.42523,176.3556 199.9183,172.47639 204.72805,166.06339" />
    <path
       style="opacity:1;fill:#4fc7ed;fill-opacity:1;fill-rule:nonzero;stroke:none;stroke-width:4.76249981;stroke-linecap:butt;stroke-linejoin:miter;stroke-miterlimit:4;stroke-dasharray:none;stroke-dashoffset:0;stroke-opacity:1"
       d="M 210.66403,118.76537 C 210.0309,116.94095 208.92646,115.06127 207.14444,113.57965 205.54147,112.31059 203.5047,111.68083 201.41743,111.8568 199.2457,112.1279 197.43364,113.0322 196.0107,114.09685 191.95631,117.04676 189.19907,121.04602 187.06851,124.52987 184.10226,129.31441 181.98597,133.95701 180.5053,137.65909 179.60582,139.90644 178.96681,141.75431 178.48467,143.33338 177.70818,145.87254 177.51376,147.35357 177.51376,147.35357 177.51376,147.35357 177.97865,145.93795 179.12568,143.58574 179.84955,142.10483 180.73303,140.4283 181.92607,138.34527 183.87872,134.93762 186.50859,130.68549 189.78993,126.4058 192.22509,123.26549 195.027,119.78894 198.43896,117.68637 199.62162,116.98826 200.78111,116.41106 201.80845,116.40695 202.60695,116.33494 203.51872,116.68558 204.20154,117.24951 205.05566,117.88195 205.6447,119.08935 206.20636,120.44186 206.71065,121.78273 207.09245,123.45144 207.32384,125.30715 207.78657,128.96692 207.67941,132.73189 207.26715,136.46668 206.84473,140.16285 206.15502,143.70121 204.94338,146.98508 202.57536,153.32716 198.80133,158.61839 193.92958,161.87064 191.93834,163.15701 189.96946,164.09953 188.0149,164.04447 186.27801,164.08097 184.59992,162.97406 183.66091,161.58092 183.14047,160.92538 183.1583,159.83077 183.35104,158.86951 183.66517,157.46755 184.45955,156.18202 185.28381,155.13352 189.65358,149.63337 194.52269,149.81041 194.52269,149.81041 194.52269,149.81041 189.63461,148.89476 184.36575,154.32345 183.35298,155.35685 182.32515,156.71437 181.74793,158.40794 181.31759,159.60996 181.20323,161.15326 181.94995,162.60836 183.04533,164.60337 185.1598,166.29632 187.87602,166.5767 190.57069,166.77641 193.22148,165.88959 195.55601,164.49647 201.30584,161.16958 206.02377,155.51589 208.88954,148.53534 210.40624,144.87432 211.32121,140.99125 211.85116,137.03736 212.40224,133.0343 212.56239,128.88051 212.04974,124.71788 211.78316,122.5799 211.343,120.5707 210.66403,118.76537 Z"
       id="path1491"
       inkscape:connector-curvature="0"
       sodipodi:nodetypes="csssc"
       inkscape:path-effect="#path-effect1493"
       inkscape:original-d="M 177.51376,147.35357 C 179.25101,139.73639 195.49799,107.25512 205.67299,115.41458 211.59573,120.1641 210.8232,137.81572 206.91646,147.76021 201.56324,161.38667 187.84359,170.48452 182.80543,162.09464 180.50485,158.26357 186.58519,150.37737 194.52269,149.81041" />
    <path
       style="opacity:1;fill:#4fc7ed;fill-opacity:1;fill-rule:nonzero;stroke:none;stroke-width:4.76249981;stroke-linecap:butt;stroke-linejoin:miter;stroke-miterlimit:4;stroke-dasharray:none;stroke-dashoffset:0;stroke-opacity:1"
       d="M 138.67405,129.77208 C 145.49505,128.75226 152.23404,129.44617 158.06238,131.76027 158.06238,131.76027 158.06238,131.76027 158.06238,131.76027 164.48238,134.26333 169.44835,138.54534 172.62643,141.76741 175.86726,145.05309 177.51376,147.35357 177.51376,147.35357 177.51376,147.35357 176.37568,144.76972 173.63758,140.92023 170.95611,137.15038 166.42935,131.93966 159.58649,128.40936 159.58649,128.40936 159.58649,128.40936 159.58649,128.40936 153.3188,125.22125 145.70152,123.88768 137.96406,125.0628 128.82709,126.44033 120.30894,130.6193 113.51744,135.87293 113.20853,136.11189 112.90211,136.35522 112.59837,136.60286 104.64795,143.05246 99.575019,151.9865 98.309269,161.09895 97.535067,166.82991 98.341787,172.1579 99.793333,176.52537 103.3857,187.29576 109.27547,192.19763 109.27547,192.19763 109.27547,192.19763 104.27679,186.39628 102.01013,175.91389 101.09371,171.69605 100.8344,166.7605 101.91446,161.71955 103.59714,153.69904 108.55494,146.07583 115.6077,140.29411 115.87993,140.07217 116.15456,139.85407 116.43142,139.63991 A 41.129388,41.129388 0 0 1 116.43142,139.63991 52.043719,52.043719 0 0 1 116.43142,139.63991 C 122.65942,134.82218 130.51886,131.0016 138.67405,129.77208 Z"
       id="path1495"
       inkscape:connector-curvature="0"
       sodipodi:nodetypes="csc"
       inkscape:path-effect="#path-effect1497"
       inkscape:original-d="M 177.51376,147.35357 C 159.33943,118.75573 131.64881,124.8578 114.97443,137.75642 100.59182,148.88221 91.902946,170.01426 109.27547,192.19763" />
    <path
       style="opacity:1;fill:#4fc7ed;fill-opacity:1;stroke:none;stroke-width:4.76249981;stroke-linecap:butt;stroke-linejoin:miter;stroke-miterlimit:4;stroke-dasharray:none;stroke-dashoffset:0;stroke-opacity:1"
       d="M 121.76228,182.88333 C 123.33844,177.75406 128.35458,182.65158 136.5775,181.87392 141.14562,181.4419 148.69265,178.55523 157.38653,169.37068 157.38653,172.48898 152.68346,187.56159 137.44829,189.87589 128.16036,191.28678 120.33345,187.53315 121.76228,182.88333 Z"
       id="path1499"
       inkscape:connector-curvature="0"
       sodipodi:nodetypes="sscss" />
    <path
       style="opacity:1;fill:#4fc7ed;fill-opacity:1;fill-rule:nonzero;stroke:none;stroke-width:4.76249981;stroke-linecap:butt;stroke-linejoin:miter;stroke-miterlimit:4;stroke-dasharray:none;stroke-dashoffset:0;stroke-opacity:1"
       d="M 127.24934,181.7073 C 127.24934,181.7073 129.61197,181.41011 129.61197,181.41011 129.10505,177.38011 128.77299,174.282 129.40603,170.24 129.89816,167.09767 130.32294,165.9384 130.32294,165.9384 130.32294,165.9384 129.07308,166.02692 127.16399,169.43773 126.25798,171.05643 125.49441,173.10728 125.07529,175.51756 124.65847,177.91462 124.66352,180.23016 124.88671,182.00449 124.88671,182.00449 127.24934,181.7073 127.24934,181.7073 Z"
       id="path1507"
       inkscape:connector-curvature="0"
       inkscape:path-effect="#path-effect1509"
       inkscape:original-d="M 127.24934,181.7073 C 125.91299,171.08334 130.32294,165.9384 130.32294,165.9384"
       sodipodi:nodetypes="cc" />
    <path
       style="display:inline;opacity:1;fill:#4fc7ed;fill-opacity:1;fill-rule:nonzero;stroke:none;stroke-width:4.76249981;stroke-linecap:butt;stroke-linejoin:miter;stroke-miterlimit:4;stroke-dasharray:none;stroke-dashoffset:0;stroke-opacity:1"
       d="M 111.56559,209.30814 C 108.95385,207.89237 106.53583,206.34838 104.40178,204.53633 103.50432,203.81553 102.74052,202.76222 102.04528,201.65474 101.24866,200.27594 100.63932,199.04517 100.57242,197.81128 100.53543,197.25559 100.57814,196.73391 100.76635,196.3159 100.9528,195.81546 101.40999,195.36317 101.91843,195.01969 101.91843,195.01969 101.91843,195.01969 101.91843,195.01969 103.67789,193.82499 106.20323,193.70475 107.55533,193.66785 109.08545,193.6261 109.94364,193.66762 109.94364,193.66762 109.94364,193.66762 109.14051,193.37276 107.62279,193.01664 106.27136,192.69954 103.68768,192.18465 101.00631,193.12253 101.00631,193.12253 101.00631,193.12253 101.00631,193.12253 100.13297,193.4432 99.235571,194.03032 98.54829,194.97547 97.993238,195.7877 97.661222,196.73849 97.575864,197.71645 97.408732,199.67414 97.877445,201.6228 98.690513,203.37766 99.300374,204.81184 100.16811,206.31844 101.46336,207.66053 103.72581,209.98348 106.39374,211.93542 109.30395,213.49936 117.49575,217.91976 128.31888,220.55296 139.98001,219.81035 145.16791,219.47991 150.25385,218.44623 155.07175,216.78961 165.03096,213.41059 173.15021,207.59376 178.09384,200.09329 183.16943,192.24447 184.47316,183.69378 184.89656,178.35938 185.34278,172.73741 185.04638,169.47973 185.04638,169.47973 185.04638,169.47973 184.91403,172.75346 183.88918,178.22585 182.91792,183.41211 180.84482,191.56825 175.60949,198.34123 170.66116,204.86655 162.97188,209.55681 153.66297,212.48795 149.16284,213.88298 144.45642,214.75319 139.67734,215.05747 128.92228,215.74239 118.90188,213.26689 111.56559,209.30814 Z"
       id="path1513"
       inkscape:connector-curvature="0"
       sodipodi:nodetypes="cssc"
       inkscape:path-effect="#path-effect1515"
       inkscape:original-d="M 109.94364,193.66762 C 93.501671,191.02179 99.737306,203.09317 102.93257,206.09843 112.84577,215.42214 133.61816,221.43404 154.36736,214.63878 173.9871,208.21341 184.47942,194.99312 185.04638,169.47973" />
    <path
       style="opacity:1;fill:#f04a5e;fill-opacity:1;fill-rule:nonzero;stroke:none;stroke-width:4.76249981;stroke-linecap:butt;stroke-linejoin:miter;stroke-miterlimit:4;stroke-dasharray:none;stroke-dashoffset:0;stroke-opacity:1"
       d="M 190.59561,226.76227 C 199.30822,220.52404 206.04654,212.25884 210.90796,203.53075 210.90796,203.53075 210.90796,203.53074 210.90796,203.53074 219.09081,188.85294 221.14155,173.94761 221.15318,163.17081 221.16478,152.42775 219.46912,146.03065 219.46912,146.03065 219.46912,146.03065 220.45456,152.57978 219.57851,163.10509 218.69658,173.70091 215.68025,187.87711 207.35306,201.45346 207.35306,201.45347 207.35306,201.45347 207.35306,201.45347 202.38283,209.55086 195.88033,217.14823 187.82723,222.88703 L 189.21142,224.82465 C 189.21142,224.82465 189.21142,224.82465 189.21142,224.82465 L 187.82723,222.88703 C 183.91399,225.6577 179.82739,227.97527 175.48756,229.14178 172.09885,229.99397 168.69727,230.27738 166.02622,228.98379 163.92875,227.96918 162.171,226.14456 162.12923,224.19586 161.89831,222.13627 163.07798,219.9406 164.59976,218.42675 167.15695,216.03834 170.33271,214.84386 173.0723,215.41163 174.25319,215.6426 175.31173,216.11122 176.14649,216.77757 176.93975,217.42951 177.51686,218.19038 177.66957,219.01934 177.89056,219.96568 177.41652,220.97767 176.85722,221.63579 174.75247,224.10466 172.41109,224.27172 172.41109,224.27172 172.41109,224.27172 174.71805,224.46491 177.34201,222.11214 178.09682,221.43294 178.81617,220.28865 178.72093,218.87845 178.60806,217.72768 178.01412,216.60756 177.09238,215.7224 176.15479,214.80011 174.9294,214.07078 173.51496,213.64981 170.16302,212.68784 166.04724,213.58299 162.7562,216.32477 160.54678,218.08291 158.75789,220.91588 158.71362,224.31277 158.85907,227.8334 161.0993,230.95707 164.2691,232.54285 168.11992,234.46912 172.55955,234.51945 176.5891,233.49415 181.70991,232.26636 186.39443,229.78837 190.59561,226.76227 L 189.21142,224.82465 C 189.21142,224.82465 189.21142,224.82465 189.21142,224.82465 Z"
       id="path1518"
       inkscape:connector-curvature="0"
       sodipodi:nodetypes="cssssc"
       inkscape:path-effect="#path-effect1520"
       inkscape:original-d="M 219.46912,146.03065 C 222.20494,164.53764 218.42389,186.58811 209.13051,202.49211 196.59659,223.94174 175.89321,236.06842 165.14766,230.76332 158.69693,227.57858 159.48499,221.05325 163.67798,217.37576 166.53923,214.86628 170.23453,213.76212 173.29363,214.53072 178.48517,215.8351 181.46726,221.76114 172.41109,224.27172" />
    <path
       style="opacity:1;fill:#f04a5e;fill-opacity:1;fill-rule:nonzero;stroke:none;stroke-width:4.76249981;stroke-linecap:butt;stroke-linejoin:miter;stroke-miterlimit:4;stroke-dasharray:none;stroke-dashoffset:0;stroke-opacity:1"
       d="M 230.8776,168.09554 C 230.58751,174.80372 228.80833,181.21211 226.55316,186.78777 224.55035,191.66146 222.67066,195.02969 220.7107,197.74372 218.89773,200.25421 217.51963,201.55207 217.51963,201.55207 217.51963,201.55207 219.17421,200.64215 221.53772,198.48341 224.01744,196.21854 226.79341,192.95514 229.4923,188.22901 232.65741,182.74804 235.27597,175.89623 235.63519,168.31165 235.77857,165.15516 235.5493,162.01522 234.84169,158.99601 233.80791,154.57689 231.18476,151.21863 228.66002,149.14109 226.1961,147.11359 224.20136,146.49455 224.20136,146.49455 224.20136,146.49455 225.5011,148.1249 226.83309,150.65916 228.27701,153.40638 229.34449,156.42022 230.20484,160.08275 230.79686,162.60876 231.00399,165.31312 230.8776,168.09554 Z"
       id="path1522"
       inkscape:connector-curvature="0"
       sodipodi:nodetypes="cc"
       inkscape:path-effect="#path-effect1524"
       inkscape:original-d="M 217.51963,201.55207 C 230.00134,191.51406 242.19765,160.18411 224.20136,146.49455" />
    <path
       style="opacity:1;fill:#f04a5e;fill-opacity:1;fill-rule:nonzero;stroke:none;stroke-width:4.76249981;stroke-linecap:butt;stroke-linejoin:miter;stroke-miterlimit:4;stroke-dasharray:none;stroke-dashoffset:0;stroke-opacity:1"
       d="M 232.41036,209.11485 C 229.32467,213.78052 224.24889,217.2058 219.58282,219.8078 215.18271,222.19924 211.78248,223.56921 208.69055,224.41445 205.83549,225.19493 204.02251,225.33906 204.02251,225.33906 204.02251,225.33906 205.80238,225.68908 208.86704,225.54879 212.0791,225.40174 216.12691,224.69576 220.97581,222.86028 226.28276,220.9111 232.34067,217.59381 236.35297,211.78641 236.74285,211.21103 237.10354,210.61977 237.43101,210.01257 238.91878,207.28148 239.35212,204.21202 238.88202,201.46014 238.88202,201.46014 238.88202,201.46014 238.88202,201.46014 238.35537,198.61845 236.9984,196.54635 235.95162,195.28035 234.88535,193.99078 234.09033,193.40035 234.09033,193.40035 234.09033,193.40035 234.44063,194.33211 234.81208,195.86216 235.17886,197.37297 235.54249,199.50103 235.27948,201.64947 235.27948,201.64947 235.27948,201.64947 235.27948,201.64947 235.06302,203.71018 234.30602,205.74672 233.23929,207.75186 232.99222,208.20996 232.71543,208.66464 232.41036,209.11485 Z"
       id="path1526"
       inkscape:connector-curvature="0"
       sodipodi:nodetypes="cc"
       inkscape:path-effect="#path-effect1528"
       inkscape:original-d="M 204.02251,225.33906 C 217.92053,225.47269 246.38473,211.44104 234.09033,193.40035" />
    <path
       style="opacity:1;fill:#f04a5e;fill-opacity:1;fill-rule:nonzero;stroke:none;stroke-width:4.76249981;stroke-linecap:butt;stroke-linejoin:miter;stroke-miterlimit:4;stroke-dasharray:none;stroke-dashoffset:0;stroke-opacity:1"
       d="M 215.51622,234.85576 C 209.16607,238.53704 201.73304,239.12893 195.64237,238.81523 189.65785,238.50699 185.71455,237.49982 185.71455,237.49982 185.71455,237.49982 189.16967,239.65809 195.27552,241.20498 201.41787,242.76112 209.95399,243.31554 217.84622,239.00938 217.96857,238.94075 218.08982,238.87126 218.20996,238.8009 220.82235,237.31661 222.78734,234.98882 223.7363,232.44588 224.52691,230.27853 224.29965,228.353 223.94557,227.14536 223.58633,225.9201 223.13229,225.33906 223.13229,225.33906 223.13229,225.33906 223.12564,226.08187 222.83549,227.17887 222.53969,228.29719 221.94523,229.66352 220.86989,230.86158 219.56357,232.38733 217.84985,233.44697 215.80338,234.69119 215.70887,234.74653 215.61315,234.80139 215.51622,234.85576 Z"
       id="path1530"
       inkscape:connector-curvature="0"
       sodipodi:nodetypes="cc"
       inkscape:path-effect="#path-effect1532"
       inkscape:original-d="M 185.71455,237.49982 C 207.22975,245.25064 225.93862,236.16348 223.13229,225.33906" />
  </g>
</svg>
